<svg id="logos" xmlns="http://www.w3.org/2000/svg" viewBox="0 0 350 75"><path d="M240.12,71.46H229.78L215,50l-7.19,7.57V71.44h-8.47L199.4,2.5h8.47l0,44.11,20-21.84h10.83l-17.74,18.9Z"/><path d="M336.86,8.2a9.19,9.19,0,1,1-9.19,9.18A9.14,9.14,0,0,1,336.86,8.2Zm0,1.8a7.27,7.27,0,0,0-7.34,7.38,7.34,7.34,0,1,0,14.68,0A7.27,7.27,0,0,0,336.86,10Zm-3.73,2.22h4.63c2,0,3.28,1.18,3.28,2.66a2.82,2.82,0,0,1-2,2.79,2.35,2.35,0,0,1,1.72,2.5c0,1.15.09,1.64.54,2.09v.25h-2.13a4.36,4.36,0,0,1-.41-2.34c0-1.48-.62-2-1.93-2H335v4.31h-1.84Zm4.39,4.34c1,0,1.59-.41,1.59-1.35s-.61-1.4-1.59-1.4H335v2.75Z"/><path d="M32.86,2.55H45.47l28.8,69h-10L57.14,54l-36,0L13.9,71.47H4ZM53.8,45.7l-14.64-36L24.36,45.67Z"/><path d="M88.91,24.75v6.59c2.27-4.62,6.41-7.57,12.61-7.57A11.87,11.87,0,0,1,113.43,33a14.6,14.6,0,0,1,13.69-9.25c8.67,0,14.18,5.43,14.17,15.27l0,32.4H132.8l0-30.63c0-5.81-3.54-9.36-8.56-9.36s-9.16,3.73-9.17,10.92l0,29.05H106.5l0-30.24c0-6.4-3.44-9.75-8.56-9.75s-9.06,3.83-9.07,11.41l0,28.56H80.41l0-46.68Z"/><path d="M169.37,23.75c14.18,0,23.73,10.55,23.72,24.34s-9.77,24.31-23.76,24.3-23.62-10.55-23.61-24.34S155.29,23.73,169.37,23.75ZM180.1,36.16a13.55,13.55,0,0,0-10.73-4.73c-8.67,0-15,6.88-15,16.63s6.29,16.64,15,16.65,15-6.78,15-16.63C184.33,43.25,183,39.22,180.1,36.16Z"/><path d="M287.05,71.5H276.71L262,50l-7.19,7.58V71.47h-8.47l.05-68.93h8.47l0,44.12,20-21.85h10.83L267.87,43.71Z"/><path d="M308.48,43.75a33.15,33.15,0,0,1,9.95,1.48l4.23,1.19V41.59c0-6.79-4.72-10.54-11.71-10.54-6.69,0-11.23,3.63-12.41,9.64l-7.68-2.18c1.88-8.95,9.17-14.66,20.1-14.65,12.7,0,19.88,6.91,19.88,18.43l0,29.24h-8.17V64.14c-2.37,5-8.58,8.37-16.06,8.36a16.53,16.53,0,0,1-11-3.85,13.35,13.35,0,0,1-4.42-10.44C291.15,48.66,298.34,43.74,308.48,43.75Zm14.17,9.36-4.33-1.28a30.49,30.49,0,0,0-8.66-1.48c-6,0-9.75,2.55-9.76,7.37,0,4.34,3.35,7.29,9.55,7.3,7.78,0,13.2-4.13,13.2-10.92Z"/></svg>